HIERARCHY
ROOT Hips
{
	OFFSET 0.0000 0.0000 0.0000
	CHANNELS 6 Xposition Yposition Zposition Zrotation Xrotation Yrotation
	JOINT Ab
	{
		OFFSET -0.0000 8.1305 -0.0000
		CHANNELS 3 Zrotation Xrotation Yrotation
		JOINT Chest
		{
			OFFSET -0.0000 26.2902 -0.0000
			CHANNELS 3 Zrotation Xrotation Yrotation
			JOINT Neck
			{
				OFFSET -0.0000 26.2902 0.0000
				CHANNELS 3 Zrotation Xrotation Yrotation
				JOINT Head
				{
					OFFSET -0.0000 10.8167 0.0000
					CHANNELS 3 Zrotation Xrotation Yrotation
					End Site
					{
						OFFSET -0.0000 16.7167 0.0000
					}
				}
			}
			JOINT LeftCollar
			{
				OFFSET -0.0000 26.2902 0.0000
				CHANNELS 3 Zrotation Xrotation Yrotation
				JOINT LeftShoulder
				{
					OFFSET 19.6667 -0.0000 0.0000
					CHANNELS 3 Zrotation Xrotation Yrotation
					JOINT LeftElbow
					{
						OFFSET 27.2190 0.0000 0.0000
						CHANNELS 3 Zrotation Xrotation Yrotation
						JOINT LeftWrist
						{
							OFFSET 30.7431 0.0000 0.0000
							CHANNELS 3 Zrotation Xrotation Yrotation
							End Site
							{
								OFFSET 0.0000 -14.7500 0.0000
							}
						}
					}
				}
			}
			JOINT RightCollar
			{
				OFFSET -0.0000 26.2902 0.0000
				CHANNELS 3 Zrotation Xrotation Yrotation
				JOINT RightShoulder
				{
					OFFSET -19.6667 0.0000 0.0000
					CHANNELS 3 Zrotation Xrotation Yrotation
					JOINT RightElbow
					{
						OFFSET -27.2190 0.0000 0.0000
						CHANNELS 3 Zrotation Xrotation Yrotation
						JOINT RightWrist
						{
							OFFSET -30.7431 0.0000 0.0000
							CHANNELS 3 Zrotation Xrotation Yrotation
							End Site
							{
								OFFSET -0.0000 -14.7500 0.0000
							}
						}
					}
				}
			}
		}
	}
	JOINT LeftHip
	{
		OFFSET 11.8000 0.0000 0.0000
		CHANNELS 3 Zrotation Xrotation Yrotation
		JOINT LeftKnee
		{
			OFFSET -0.0000 -39.7832 0.0000
			CHANNELS 3 Zrotation Xrotation Yrotation
			JOINT LeftAnkle
			{
				OFFSET -0.0000 -41.7317 0.0000
				CHANNELS 3 Zrotation Xrotation Yrotation
				End Site
				{
					OFFSET -0.0000 -4.9167 16.7167
				}
			}
		}
	}
	JOINT RightHip
	{
		OFFSET -11.8000 0.0000 0.0000
		CHANNELS 3 Zrotation Xrotation Yrotation
		JOINT RightKnee
		{
			OFFSET -0.0000 -39.7832 0.0000
			CHANNELS 3 Zrotation Xrotation Yrotation
			JOINT RightAnkle
			{
				OFFSET -0.0000 -41.7317 0.0000
				CHANNELS 3 Zrotation Xrotation Yrotation
				End Site
				{
					OFFSET -0.0000 -4.9167 16.7167
				}
			}
		}
	}
}
MOTION
Frames: 15
Frame Time: 0.010000
-7.0534 92.8532 87.0775 354.9591 346.9980 200.8003 0.4914 349.4643 0.9949 3.0153 13.3051 0.5976 348.9969 351.5812 350.0253 9.2944 11.5096 349.8981 340.1791 357.5681 13.8395 322.5050 59.6281 336.0670 12.6746 355.0293 316.9443 89.3683 355.7443 349.5433 26.1499 356.2925 344.1727 38.3216 45.0746 11.1487 334.3434 351.6648 35.5703 268.6366 355.7715 1.1325 348.2885 349.6274 357.3642 357.4040 6.7914 4.1093 351.5646 350.6490 12.5976 349.4351 348.7080 4.0976 12.4016 18.0033 13.4378 347.5062 341.5385 310.8992 
-7.1011 92.7834 86.7139 355.0712 347.2499 200.6959 0.4579 349.4585 0.9839 3.0562 13.3486 0.5826 349.1142 351.6412 350.0584 9.2508 11.4778 349.9254 340.1769 357.5648 13.8116 322.3072 59.4637 336.3897 12.4270 355.1578 317.1770 89.2911 355.7953 349.3950 26.1311 356.3099 344.1705 38.5516 44.9133 10.9473 334.5072 351.7048 35.7525 268.6777 355.7348 1.3620 348.3393 349.6336 357.2307 357.4196 6.8561 4.0622 351.5487 350.8966 12.7307 349.7053 348.9761 4.1042 12.4416 18.2869 13.5500 347.4441 341.2849 310.8399 
-7.1484 92.7037 86.3502 355.1809 347.5170 200.5605 0.4160 349.4684 0.9819 3.1000 13.3849 0.5795 349.1478 351.6517 350.0637 9.3108 11.5471 349.9149 340.2071 357.5778 13.7997 322.1627 59.4610 336.6100 12.2865 355.2251 317.4614 89.1468 355.7623 349.2431 26.1170 356.2958 344.1836 38.7776 44.9541 10.6879 334.4972 351.6484 35.8894 268.8164 355.6660 1.4279 348.4177 349.6965 357.1198 357.4489 6.9041 4.1996 351.5832 351.0636 12.5049 349.9691 349.2164 4.0915 12.5130 18.6531 13.6761 347.3614 340.9984 310.7887 
-7.1874 92.6119 85.9752 355.3018 347.8302 200.3890 0.3750 349.5200 0.9881 3.1529 13.4046 0.5846 349.1674 351.6952 350.0730 9.3957 11.6002 349.9057 340.2233 357.5881 13.7973 322.1606 59.5264 336.6842 12.1874 355.2902 317.8392 89.1277 355.6921 349.0626 26.1167 356.3092 344.2201 39.0443 44.9378 10.3615 334.5669 351.6375 36.0662 268.9906 355.6798 1.6085 348.5670 349.8038 357.1005 357.4683 7.0815 3.9627 351.2922 351.0519 12.5906 350.2815 349.4874 4.0725 12.5646 19.0509 13.7203 347.3155 340.6201 310.8270 
-7.2379 92.5169 85.6034 355.4353 348.1015 200.2726 0.3401 349.5098 0.9653 3.1666 13.4339 0.5601 349.2557 351.7267 350.0691 9.4348 11.6594 349.8822 340.2571 357.5973 13.7809 322.0212 59.4542 336.9043 12.0379 355.3966 318.1521 89.1780 355.6591 348.8850 26.1179 356.3192 344.1594 39.1704 44.9680 10.2788 334.6874 351.6645 36.1301 269.0611 355.6425 1.7941 348.7171 349.9297 357.0115 357.5090 7.2383 3.8026 351.8385 351.5016 12.6969 350.5525 349.7159 3.9306 12.6133 19.4721 13.8713 347.3093 340.2083 310.8302 
-7.2872 92.4114 85.2245 355.5756 348.3890 200.1528 0.3014 349.4985 0.9353 3.1886 13.4578 0.5285 349.3312 351.8016 350.1026 9.4769 11.6836 349.8989 340.2614 357.5961 13.7623 321.8359 59.3132 337.2244 11.8520 355.5173 318.3811 89.3928 355.7503 348.8864 26.1601 356.2944 344.1067 39.1596 45.0917 10.2494 334.8170 351.7053 36.1525 269.1051 355.5929 1.9598 348.9157 350.0943 356.9606 357.5600 7.5123 3.7860 352.2890 351.8063 12.4691 350.8211 349.9312 3.7984 12.6944 19.9509 14.0405 347.1848 339.9351 310.8341 
-7.3433 92.3071 84.8693 355.7068 348.6582 200.0208 0.2512 349.4550 0.8943 3.1903 13.5005 0.4900 349.4851 351.8525 350.1638 9.4177 11.7170 349.9487 340.2604 357.5907 13.7529 321.6811 59.1260 337.5291 11.6447 355.6281 318.6441 88.9655 355.6135 348.4101 26.2107 356.2864 344.1103 39.2361 45.1143 10.0812 334.9878 351.7437 36.2803 269.1997 355.5420 2.1967 349.1313 350.2293 356.8659 357.5443 7.9444 3.9250 353.2846 352.0447 12.5620 351.0620 350.1058 3.6542 12.7570 20.4686 14.2959 347.0726 339.6471 310.7837 
-7.4052 92.2154 84.5780 355.8446 348.8948 199.8787 0.1926 349.4017 0.8533 3.2116 13.5121 0.4531 349.5859 351.9603 350.2005 9.4532 11.7122 349.9649 340.2457 357.5862 13.7559 321.5695 59.0158 337.7765 11.4819 355.7164 318.9440 88.7141 355.6255 348.1816 26.2585 356.2577 344.0536 39.2272 45.1860 10.0348 335.1064 351.7606 36.3409 269.2998 355.5633 2.2777 349.3664 350.3879 356.8344 357.5079 8.2771 3.9334 353.5186 351.8619 12.9258 351.2978 350.2409 3.5962 12.8041 20.9015 14.4741 346.9329 339.5030 310.7606 
-7.4746 92.1322 84.2733 355.9676 349.1709 199.7379 0.1360 349.3884 0.8032 3.2124 13.4996 0.4098 349.6887 352.1360 350.2511 9.5236 11.6708 349.9890 340.2232 357.5905 13.7669 321.4961 58.9389 338.0019 11.3532 355.7940 319.2324 88.6750 355.5381 348.0640 26.3317 356.2378 344.0281 39.2702 45.2384 9.8837 335.2381 351.7864 36.4134 269.3700 355.4787 2.4802 349.6337 350.6549 356.7921 357.4277 8.5126 4.0496 353.9229 351.7982 13.1518 351.5466 350.4281 3.5632 12.8287 21.3610 14.8423 346.7720 339.3279 310.5203 
-7.5365 92.0498 83.9574 356.1013 349.4453 199.6331 0.0718 349.3502 0.7328 3.1953 13.5252 0.3442 349.8373 352.2658 350.2926 9.5779 11.6581 350.0028 340.1912 357.5716 13.7900 321.5125 58.8555 338.1459 11.2495 355.8596 319.5155 88.6470 355.5738 347.9735 26.4022 356.2407 344.0835 39.5890 44.9070 9.5426 335.5348 351.8909 36.5982 269.3992 355.2726 3.0880 349.9559 350.9741 356.8541 357.2854 8.6286 3.9846 354.3808 351.9202 13.3353 351.8246 350.6303 3.5375 12.8060 21.8180 15.2838 346.5991 339.1446 310.1854 
-7.6147 91.9786 83.6506 356.2136 349.7131 199.5497 0.0132 349.3005 0.6430 3.1405 13.6049 0.2621 349.9361 352.3930 350.3549 9.7212 11.5471 350.0434 340.1089 357.5664 13.8319 321.5894 58.6764 338.2606 11.0605 355.9660 319.7731 88.7755 355.5365 347.7479 26.5288 356.2094 344.0440 39.5753 44.9466 9.5133 335.6767 351.8989 36.6070 269.4110 355.1186 3.3873 350.2321 351.3231 356.9199 357.1474 8.6913 3.7904 354.8953 352.0195 13.6505 352.0638 350.8346 3.5054 12.7968 22.2590 15.4322 346.5517 338.9086 310.0945 
-7.7106 91.9271 83.3687 356.2095 349.9071 199.3769 359.8618 349.2461 0.5792 3.0506 13.6780 0.2229 349.9284 352.4486 350.3930 9.8872 11.5073 350.0625 339.9878 357.5279 13.9719 321.8738 58.4948 338.0886 10.8989 356.0476 320.1346 88.7662 355.4643 347.5616 26.6457 356.2042 344.0925 39.6984 44.9067 9.3472 335.7774 351.9158 36.6250 269.4849 355.0595 3.6062 350.3556 351.6613 357.0484 357.0435 8.6925 3.6585 355.4451 352.1314 13.8604 352.1398 350.9112 3.5304 12.8472 22.8196 15.6010 346.4886 338.7002 309.9638 
-7.8274 91.8921 83.0956 356.1564 350.0821 199.2065 359.6912 349.1996 0.5202 2.9282 13.7509 0.1926 349.9294 352.4669 350.4363 10.0266 11.5248 350.0903 339.8902 357.4911 14.0703 322.0100 58.3283 338.0462 10.7919 356.1004 320.4418 88.9073 355.5296 347.6361 26.8103 356.1641 344.0208 39.7114 44.5621 9.2253 336.0221 351.9684 36.9109 269.5900 355.1037 3.9680 350.3752 352.0137 357.1419 356.9977 8.6757 3.6190 355.8475 352.1752 14.0042 352.1354 350.9811 3.5282 12.9170 23.3878 15.7350 346.4637 338.4451 309.8665 
-7.9449 91.8677 82.8245 356.0822 350.2720 199.0360 359.5164 349.1812 0.4687 2.7761 13.8352 0.1752 349.9763 352.4797 350.4981 10.1182 11.5324 350.1378 339.7957 357.4848 14.1352 322.1490 58.0765 338.0236 10.6479 356.1943 320.7349 88.9134 355.4664 347.4240 26.8785 356.1517 343.9479 39.9209 44.5226 9.0938 336.0686 351.9237 36.9579 269.6904 355.0882 4.2136 350.3762 352.4149 357.2473 356.9564 8.6091 3.7192 356.1240 352.2274 14.0795 352.0998 351.0523 3.5422 13.0231 23.9763 15.8134 346.5062 338.1359 309.8161 
-8.0606 91.8481 82.5662 356.0216 350.4409 198.8787 359.3423 349.1718 0.4278 2.6337 13.8772 0.1659 350.0045 352.5150 350.5572 10.2065 11.5437 350.1815 339.7348 357.4673 14.1769 322.2283 57.8799 338.0037 10.6086 356.2349 321.0436 88.9414 355.5042 347.4732 26.9255 356.1187 343.8246 40.0340 44.6226 9.1226 336.0741 351.9266 36.8302 269.7353 355.0719 4.2393 350.3818 352.7867 357.3809 356.9215 8.5381 3.8302 356.3989 352.2955 14.0757 352.0624 351.0850 3.5390 13.1364 24.5873 15.8827 346.5587 337.8111 309.7687 
